<svg clip-rule="evenodd" fill-rule="evenodd" height="2048" image-rendering="optimizeQuality" shape-rendering="geometricPrecision" text-rendering="geometricPrecision" viewBox="0 0 2048 2048" width="2048" xmlns="http://www.w3.org/2000/svg"><g id="Layer_x0020_1"><g id="_316775440"><g fill="#5d4037"><path id="_316776088" d="m595.174 1432.53h190.485v359.471h-190.485z"/><g><path id="_316776064" d="m594.935 1644.14s-13.5331 99.3544-118.21 147.865h213.692v-150.102l-95.4828 2.23701z"/><path id="_316775272" d="m785.9 1644.14s13.5331 99.3544 118.21 147.865h-213.692v-150.102l95.4828 2.23701z"/></g><path id="_316774912" d="m595.174 1432.53 30.882-72.47 8.393 81.13 16.224-44.76 35.805 49.23 37.485-66.01 61.696 52.88-73.445 65.72z"/><path id="_316775464" d="m842.951 952.328 164.969 95.242-222.261 384.96-18.387 3.85 12.124 7 6.263-10.85-26.988-76.65-64.871 38.08-.679-.39-6.313-59.8-36.43 30.65 33.293-74.45-62.976 47.32z"/></g><path id="_316775128" d="m693.436 1041.2c-40.2567-3.57992-81.4371-90.8115-94.7587-176.329-4.40079-28.2508-6.35079-56.641-4.79882-81.6036 1.76221-28.3642 8.21575-53.2772 20.7957-70.8414 17.948-25.0583 43.9559-35.6988 79.8449-24.3189 3.06142.970867 18.0709 5.42126 35.3315 10.2307-10.1079-21.1453-18.2256-41.6481-21.2717-86.3505l-.392126-5.73662c-5.08583-19.5177-16.7953-73.5615-17.8618-117.246-.46063-18.8504 1.02638-36.5256 5.65276-50.5359 7.70434-23.3292 22.5-38.2276 47.237-39.4831 7.90985-.399213 16.3571 1.04882 25.3595 4.62166 12.4559 4.94055 22.6063 9.65316 31.1067 14.3835 1.11024-12.1323 3.37677-23.7366 6.99213-35.1709 12.6662-40.05 40.5768-73.6808 91.5816-115.357 7.2319-5.90906 15.4299-9.43465 24.3685-10.8319 16.4894-2.57362 33.8445 2.87362 50.3894 13.9488 12.5965 8.43308 25.3996 20.5807 36.9662 34.7374 13.4575 16.4681 25.6571 36.2764 34.2189 56.5926 19.4988-17.8394 47.4284-36.0532 88.0312-43.3441l9.89765-1.77756c41.0032-7.363 85.9997 3.74055 119.294 22.8992 16.6205 9.56694 30.8906 21.4725 41.002 34.5083 12.5173 16.1374 19.004 34.2154 17.0728 52.8307-1.40079 13.5024-7.03583 26.3091-17.7154 37.7374 7.75749-.523229 16.6311-1.07599 25.5768-1.46929 40.5697-1.78347 80.1969-3.52796 97.9099 20.0965 16.448 21.939 9.79489 50.0032-37.004 89.0764 41.0185 21.3543 109.283 58.526 164.441 155.158 38.6351 67.6831 12.8728 146.68-39.5174 217.723-29.817 40.4327-68.5749 78.6213-108.212 110.093-39.8032 31.604-80.9977 56.7213-115.351 70.7941-43.5544 17.8441-80.7757 18.5669-101.982-3.83268-11.5335-12.1831-8.88662-20.6398-10.9642-18.6744-2.66103 2.52047-6.40394 9.04135-10.2921 15.8138-22.1303 38.5595-46.5815 81.1524-119.237 38.2796-35.0799-20.6988-62.413-37.6784-84.2942-51.2705-38.0174-23.6138-58.2685-36.1902-79.6725-43.239-24.9366-8.21103-56.6457-10.865-124.474-16.5354-20.1319-1.68189-43.102-3.60473-65.2713-5.57717z" fill="#43a047" fill-rule="nonzero"/></g></g><path d="m0 0h2048v2048h-2048z" fill="none"/></svg>