<?xml version="1.0" encoding="iso-8859-1"?>
<!-- Generator: Adobe Illustrator 19.0.0, SVG Export Plug-In . SVG Version: 6.00 Build 0)  -->
<svg version="1.1" id="Capa_1" xmlns="http://www.w3.org/2000/svg" xmlns:xlink="http://www.w3.org/1999/xlink" x="0px" y="0px"
	 viewBox="0 0 512.001 512.001" style="enable-background:new 0 0 512.001 512.001;" xml:space="preserve">
<g>
	<path style="fill:#5C6470;" d="M324.403,330.567c73.388-6.033,134.122,38.57,134.122,85.712v0.001
		c0,47.141-60.36,86.385-134.122,85.711l-141.654-1.294c-63.556-0.58-129.272-25.12-129.272-78.307
		c0-35.355,38.14-67.506,86.235-80.561c4.63-1.258,13.379-2.019,23.917-2.503c15.748,2.909,32.929,3.402,49.589,1.817
		L324.403,330.567z"/>
	<path style="fill:#919BA4;" d="M302.935,196.212c56.764-10.734,109.95,19.256,115.854,56.204l0,0
		c5.903,36.947-36.489,72.645-94.386,78.151l-111.186,10.576c-49.885,4.745-104.464-9.111-111.124-50.796
		c-4.428-27.711,21.439-56.029,57.498-70.198c2.778-1.092,7.663-2.149,13.703-3.166c11.968,1.08,24.713,0.467,37.536-2.129
		L302.935,196.212z"/>
	<path style="fill:#B8C9D2;" d="M163.81,105.568c-40.721,10.055-65.072,42.578-56.907,70.259l0,0
		c9.066,30.734,55.967,48.736,103.927,39.027l92.105-18.644c41.324-8.364,79.449-32.621,69.22-67.298
		c-6.799-23.051-37.849-39.218-71.715-41.688c-1.622-0.118-3.884-0.027-6.604,0.217c-5.591,2.078-11.513,3.742-17.526,4.959
		l-69.608,14.09C191.594,109.551,176.627,108.968,163.81,105.568z"/>
	<path style="fill:#5C6470;" d="M224.662,17.403l-42.874,4.626c-37.036,3.996-60.478,31.741-53.626,54.969l0,0
		c6.852,23.228,42.296,36.831,78.541,29.494l69.608-14.09c31.229-6.321,60.043-24.652,52.312-50.859
		c-5.139-17.42-28.603-29.638-54.198-31.504C265.892,9.417,233.921,16.404,224.662,17.403z"/>
</g>
<g>
	<path style="fill:#000001;" d="M439.486,356.889c-16.091-14.821-36.846-25.596-59.76-31.542
		c14.674-7.365,27.011-17.001,35.786-28.337c11.132-14.381,15.68-30.347,13.152-46.173c-2.737-17.125-13.857-33.313-31.312-45.584
		c-12.517-8.8-27.341-14.989-43.169-18.332c9.895-6.479,17.653-14.081,22.724-22.502c7.092-11.774,8.765-25.029,4.84-38.335
		c-6.17-20.919-27.984-37.615-57.051-45.037c3.919-3.522,7.159-7.344,9.61-11.412c5.722-9.5,7.073-20.193,3.908-30.922
		c-6.14-20.815-31.482-36.346-63.063-38.649C274.546,0.022,273.911,0,273.213,0c-6.639,0-18.178,1.993-33.753,4.809
		c-6.638,1.199-12.908,2.333-15.871,2.652l-42.875,4.626c-23.52,2.538-44.263,14.098-55.484,30.921
		c-7.834,11.746-10.2,24.821-6.66,36.818c6.821,23.123,34.285,38.657,68.342,38.658c0.001,0,0.001,0,0.003,0
		c7.26,0,14.586-0.737,21.772-2.191l69.608-14.09c6.301-1.275,12.258-2.929,17.809-4.91c2.179-0.156,3.231-0.123,3.609-0.094
		c31.185,2.274,57.619,16.802,62.852,34.543c2.362,8.007,1.45,15.32-2.789,22.358c-8.633,14.333-31.172,26.712-58.823,32.309
		l-92.105,18.645c-11.471,2.322-23.045,2.977-34.108,2.034c-0.403-0.059-0.813-0.091-1.227-0.1c-9.04-0.87-17.721-2.82-25.693-5.835
		c-16.465-6.226-27.881-16.488-31.323-28.156c-0.928-3.146-1.303-6.452-1.115-9.825c0.308-5.515-3.913-10.234-9.427-10.542
		c-5.529-0.319-10.234,3.913-10.542,9.427c-0.316,5.667,0.323,11.252,1.901,16.6c5.285,17.915,20.715,32.01,41.391,40.363
		c-12.177,6.855-22.749,15.32-30.677,24.69C95.087,259,89.622,275.673,92.218,291.926c6.783,42.448,53.499,60.116,102.254,60.114
		c6.556,0,13.155-0.319,19.692-0.941l111.075-10.565c38.501-3.17,76.145,8.452,100.696,31.066
		c14.568,13.42,22.591,29.287,22.591,44.681c0,13.802-6.418,27.455-18.56,39.487c-22.939,22.729-63.362,36.608-105.471,36.224
		l-141.654-1.294c-32.321-0.295-62.116-6.784-83.895-18.272c-23.535-12.414-35.468-29.248-35.468-50.036
		c0-16.557,10.439-30.23,19.196-38.785c3.951-3.859,4.024-10.191,0.165-14.142c-3.86-3.951-10.191-4.023-14.141-0.165
		c-16.499,16.119-25.219,34.477-25.219,53.092c0,28.386,15.955,51.806,46.137,67.727c24.548,12.948,57.592,20.257,93.043,20.581
		l141.654,1.294c0.653,0.006,1.304,0.009,1.956,0.009c47.236,0,91.148-15.643,117.774-42.025
		c16.017-15.872,24.482-34.439,24.482-53.695C468.525,395.232,458.211,374.14,439.486,356.889z M274.326,82.601l-69.607,14.091
		c-5.883,1.19-11.874,1.794-17.805,1.794h-0.002c-24.328,0-45.003-10.227-49.16-24.316c-1.832-6.212-0.371-13.337,4.116-20.063
		c7.971-11.951,23.294-20.226,40.991-22.135l42.875-4.626c3.672-0.396,9.979-1.536,17.283-2.856
		C253.499,22.595,267.854,20,273.213,20c0.177,0,0.339,0.002,0.484,0.013c22.227,1.62,41.715,12.094,45.334,24.36
		c1.581,5.357,0.973,10.246-1.857,14.945c-4.468,7.418-14.285,14.134-27.026,18.835c-0.044,0.018-0.09,0.03-0.133,0.048
		C285.162,79.982,279.89,81.475,274.326,82.601z M212.271,331.188c-44.372,4.221-94.684-7.254-100.303-42.419
		c-3.412-21.352,18.155-46.297,51.281-59.313c1.008-0.396,3.695-1.22,10.488-2.402c3.582,0.288,7.218,0.443,10.901,0.443
		c9.199,0,18.669-0.917,28.176-2.841l92.021-18.627c29.049-5.486,59.332,0.342,81.014,15.585
		c12.997,9.137,21.188,20.637,23.064,32.379c2.065,12.927-3.872,23.87-9.217,30.774c-14.739,19.039-43.953,32.773-76.241,35.845
		L212.271,331.188z"/>
	<path style="fill:#000001;" d="M96.482,370.283c1.59,0,3.204-0.381,4.705-1.183l0.985-0.522c4.888-2.57,6.767-8.617,4.197-13.505
		c-2.572-4.889-8.619-6.769-13.505-4.196l-1.104,0.585c-4.871,2.604-6.709,8.662-4.105,13.533
		C89.455,368.365,92.91,370.283,96.482,370.283z"/>
	<path style="fill:#000001;" d="M396.284,391.955c8.046,5.381,14.525,13.138,14.525,15.973c0,5.522,4.477,10,10,10
		c5.523,0,10-4.478,10-10c0-16.129-19.499-29.983-23.406-32.597c-13.633-9.118-30.519-14.898-48.835-16.716
		c-5.496-0.552-10.393,3.467-10.938,8.964c-0.545,5.496,3.468,10.393,8.964,10.938C371.649,380.011,385.374,384.657,396.284,391.955
		z"/>
	<path style="fill:#000001;" d="M359.98,246.268c3.865,1.818,9.488,5.738,10.792,7.503c1.634,3.716,5.291,5.972,9.154,5.972
		c1.212,0,2.445-0.223,3.642-0.69c5.143-2.014,7.681-7.814,5.667-12.957c-3.873-9.895-20.056-17.602-20.744-17.925
		c-15.288-7.19-33.577-9.316-51.505-5.989c-5.43,1.008-9.015,6.228-8.006,11.657c1.008,5.431,6.231,9.017,11.658,8.007
		C334.279,239.311,348.62,240.923,359.98,246.268z"/>
	<path style="fill:#000001;" d="M108.756,143.97c1.896,1.657,4.241,2.47,6.576,2.47c2.786,0,5.558-1.157,7.535-3.421l0.297-0.338
		c3.779-4.003,3.612-10.311-0.38-14.109c-4.001-3.808-10.331-3.65-14.138,0.353c-0.237,0.249-0.533,0.582-0.841,0.936
		C104.171,134.018,104.597,140.336,108.756,143.97z"/>
	<path style="fill:#000001;" d="M295.48,141.254l2.055-0.419c13.088-2.672,17.986-3.671,28.93,1.874
		c1.449,0.734,2.992,1.082,4.512,1.082c3.648,0,7.166-2.005,8.928-5.482c2.496-4.927,0.526-10.944-4.4-13.44
		c-17.159-8.695-28.107-6.461-41.97-3.63l-2.023,0.411c-5.413,1.096-8.913,6.372-7.817,11.785
		C284.79,138.85,290.065,142.338,295.48,141.254z"/>
	<path style="fill:#000001;" d="M297.034,52.884c2.271-5.034,0.03-10.956-5.004-13.227c-15.684-7.074-27.792-3.826-39.503-0.686
		c-3.727,0.999-7.581,2.033-11.595,2.726c-5.442,0.94-9.092,6.114-8.152,11.557c0.84,4.866,5.066,8.3,9.842,8.3
		c0.565,0,1.138-0.049,1.714-0.147c4.91-0.849,9.405-2.054,13.371-3.117c10.193-2.733,16.927-4.54,26.1-0.401
		C288.842,60.16,294.763,57.919,297.034,52.884z"/>
</g>
<g>
</g>
<g>
</g>
<g>
</g>
<g>
</g>
<g>
</g>
<g>
</g>
<g>
</g>
<g>
</g>
<g>
</g>
<g>
</g>
<g>
</g>
<g>
</g>
<g>
</g>
<g>
</g>
<g>
</g>
</svg>
