<svg height="512" viewBox="0 0 64 64" width="512" xmlns="http://www.w3.org/2000/svg"><g id="water_pollution"><g><g><path d="m35 53c0-17.681-3.187-25.006-11-25.285v-6.425l.272-.001c13.72 0 20.694 10.618 20.728 31.561l-9.993.15z" fill="#42a5f5"/><path d="m2 4h13v26h-13z" fill="#546e7a"/><path d="m15 2h9v30h-9z" fill="#78909c"/><path d="m24 52v-3c0-1.103.897-2 2-2s2 .897 2 2v3z" fill="#ffca28"/><path d="m38.429 62c-1.604 0-3.11-.086-4.244-.242l-6.513-.942c-1.131-.156-2.635-.241-4.243-.241s-3.115.086-4.243.241l-6.515.942c-1.129.155-2.638.242-4.242.242s-3.111-.086-4.243-.242l-2.186-.319v-8.571l2.186.318c1.135.156 2.64.242 4.243.242s3.11-.086 4.242-.242l6.515-.942c1.074-.148 2.624-.233 4.245-.233 1.619 0 3.165.085 4.241.233l6.513.942c1.137.156 2.642.242 4.244.242s3.109-.086 4.243-.242l6.513-.942c1.075-.148 2.625-.233 4.246-.233 1.618 0 3.164.085 4.242.233l4.327.624v8.571l-4.327-.624c-1.13-.155-2.635-.241-4.244-.241-1.607 0-3.114.086-4.243.241l-6.513.942c-1.131.156-2.641.243-4.244.243z" fill="#1e88e5"/></g><path d="m2 29c-.552 0-1 .447-1 1s.448 1 1 1h12v1c0 .553.448 1 1 1h9c.552 0 1-.447 1-1v-3.191c6.259.878 8.902 7.799 8.995 23.341l-4.995-.723v-2.427c0-1.654-1.346-3-3-3s-3 1.346-3 3v2.009c-1.441.014-2.856.094-3.958.246l-6.442.932-2.894-2.894c-.391-.391-1.023-.391-1.414 0s-.391 1.023 0 1.414l1.688 1.688c-1.957.072-4.152.009-5.651-.197l-2.186-.318c-.546-.091-1.054.298-1.134.845s.299 1.055.846 1.134l2.193.319c1.207.167 2.792.25 4.377.25 1.587 0 3.177-.083 4.388-.251l6.508-.941c2.226-.306 5.987-.306 8.206-.001l6.52.943c2.416.334 6.347.335 8.769-.001l6.505-.941c2.265-.313 5.95-.313 8.209 0l4.327.624c.544.073 1.054-.302 1.133-.848.078-.547-.301-1.054-.848-1.133l-4.333-.624c-1.212-.168-2.806-.251-4.399-.25l1.297-1.297c.391-.391.391-1.023 0-1.414s-1.023-.391-1.414 0l-2.818 2.818c-.511.038-1.002.084-1.434.144l-3.058.442c-.176-12.341-2.849-21.168-7.967-26.228-3.323-3.285-7.731-5.006-13.017-5.15v-18.32c0-.553-.448-1-1-1h-9c-.552 0-1 .447-1 1v1h-11.999c-.552 0-1 .447-1 1s.448 1 1 1h12v24zm24 19c.551 0 1 .448 1 1v2.163c-.617-.061-1.294-.103-2-.128v-2.035c0-.552.449-1 1-1zm10.61-21.108c4.768 4.714 7.244 13.16 7.377 25.095l-1.451.21c-1.768.243-4.396.294-6.54.157-.079-17.191-3.298-24.735-10.996-25.566v-4.47c4.784.145 8.672 1.669 11.61 4.574zm-20.61-23.892h7v28h-7zm46.99 58.582c-.079.546-.589.922-1.133.848l-4.327-.624c-2.259-.313-5.944-.313-8.209 0l-6.505.941c-2.422.336-6.353.335-8.769.001l-6.52-.943c-2.219-.304-5.98-.305-8.206.001l-6.508.941c-1.211.168-2.801.251-4.389.251-1.586 0-3.17-.083-4.377-.25l-2.193-.319c-.544-.079-.923-.587-.844-1.134s.587-.932 1.134-.845l2.186.318c2.219.305 5.979.305 8.205-.001l6.508-.941c2.422-.335 6.352-.334 8.766-.001l6.52.943c2.258.311 5.944.312 8.208-.001l6.505-.941c2.422-.336 6.353-.335 8.769-.001l4.333.624c.545.079.924.586.846 1.133z" fill="#212121"/></g></g></svg>