<svg id="Layer_1" viewBox="0 0 512 512" xmlns="http://www.w3.org/2000/svg" data-name="Layer 1"><g fill-rule="evenodd"><g><g><path d="m164.415 174.305-3.52.467-56.868-67.32-15.364 12.912 52.488 63.98-9.226 113.321h54.133l-6.897-102.344 46.619-74.446-17.648-11.228z" fill="#cd7d25"/><path d="m160.876 174.749-56.849-67.297-15.364 12.912.775.944 4.589-3.857 56.868 67.32 3.52-.467 6.461-9.556zm14.508 122.916h10.674l-6.897-102.345 46.619-74.445-17.648-11.228-7.736 11.441 15.383 9.787-46.619 74.445 6.223 92.345z" fill="#b76f21"/><path d="m51.659 18.787c11.863 0 21.478 9.616 21.478 21.479 0 2.29-.359 4.497-1.024 6.567 6.741 3.931 11.282 9.827 12.034 16.519 3.499-1.026 7.202-1.576 11.034-1.576 2.773 0 5.479.29 8.089.838.847-5.871 3.616-11.119 7.648-15.088-7.964-3.142-13.598-10.907-13.598-19.987 0-11.863 9.616-21.479 21.478-21.479s21.479 9.616 21.479 21.479c0 4.937-1.667 9.484-4.467 13.112 11.621 2.821 20.252 13.294 20.252 25.783 0 13.314-9.807 24.336-22.591 26.241.573 2.665.877 5.431.877 8.268 0 21.631-17.536 39.167-39.167 39.167-10.734 0-20.458-4.319-27.532-11.312-4.452 9.489-14.091 16.062-25.266 16.062-15.405 0-27.894-12.489-27.894-27.894s12.489-27.893 27.894-27.893c5.277 0 10.211 1.466 14.419 4.012.318-1.562.731-3.088 1.229-4.577-1.839.244-3.734.371-5.668.371-17.616 0-31.896-10.545-31.896-23.552 0-7.098 4.252-13.463 10.979-17.781-.819-2.273-1.266-4.724-1.266-7.28 0-11.863 9.616-21.479 21.479-21.479z" fill="#39b33b"/><path d="m134.273 98.495c.051.81.076 1.626.076 2.448 0 13.371-6.701 25.174-16.926 32.241 4.366-6.318 6.926-13.98 6.926-22.241 0-2.837-.304-5.602-.877-8.268 3.953-.589 7.62-2.05 10.801-4.181zm-82.614-79.708c11.863 0 21.478 9.616 21.478 21.479 0 2.29-.359 4.497-1.024 6.567 6.741 3.931 11.282 9.827 12.034 16.519 3.499-1.026 7.202-1.576 11.034-1.576.735 0 1.465.02 2.191.061-2.1 3.18-3.533 6.839-4.102 10.778-2.61-.548-5.316-.838-8.089-.838-3.832 0-7.534.55-11.034 1.576-.752-6.691-5.293-12.588-12.034-16.519.664-2.07 1.024-4.277 1.024-6.567 0-11.863-9.616-21.479-21.478-21.479-3.349 0-6.52.767-9.345 2.134 3.475-7.181 10.832-12.134 19.345-12.134zm47.795-.593c3.475-7.181 10.831-12.134 19.344-12.134 11.863 0 21.479 9.616 21.479 21.479 0 4.937-1.667 9.484-4.467 13.112 11.621 2.821 20.252 13.294 20.252 25.783 0 9.894-5.417 18.522-13.446 23.083 2.193-3.861 3.446-8.325 3.446-13.083 0-12.489-8.63-22.962-20.251-25.783 2.8-3.628 4.466-8.175 4.466-13.112 0-11.863-9.616-21.479-21.479-21.479-3.349 0-6.519.767-9.344 2.134z" fill="#33a235"/><path d="m202.576 75.891c-4.958 6.126-7.929 13.926-7.929 22.421 0 19.699 15.969 35.669 35.668 35.669 9.625 0 18.359-3.813 24.775-10.011.375 9.814 21.612 5.368 12.573 9.847-15.073 7.469-19.567 26.304-19.567 26.304 15.569 14.531 37.972-21.15 46.715-5.024 9.213 16.992 34.146 4.028 41.585-6.754 4.161-6.03-11.229-20.493-40.315-27.337l-.216-.132h.556c39.014.001 70.641-10.206 70.641-22.797 0-9.147-16.695-17.035-40.785-20.667 2.367-2.958 3.73-6.426 3.73-10.136 0-10.829-11.609-19.608-25.929-19.608s-25.929 8.779-25.929 19.608c0 3.072.935 5.979 2.601 8.568-7.427.543-14.41 1.464-20.745 2.697-4.238-6.349-10.458-11.262-17.775-13.855.557-1.599.855-3.277.855-5.009 0-10.829-11.609-19.608-25.929-19.608s-25.929 8.779-25.929 19.608c0 6.741 4.5 12.688 11.351 16.217z" fill="#72d561"/><path d="m268.149 77.178c-2.815.397-5.535.852-8.145 1.36-4.238-6.349-10.458-11.262-17.775-13.855.557-1.599.855-3.277.855-5.009 0-10.829-11.609-19.608-25.929-19.608-11.453 0-21.171 5.616-24.604 13.405 4.159-2.148 9.187-3.405 14.604-3.405 14.32 0 25.929 8.779 25.929 19.608 0 1.731-.298 3.41-.855 5.009 7.317 2.593 13.537 7.506 17.775 13.855 6.335-1.233 13.318-2.154 20.745-2.697-1.666-2.589-2.601-5.495-2.601-8.568l.002-.096zm58.806 79.901c4.011-2.63 7.39-5.765 9.44-8.735 2.952-4.279-3.942-12.803-18.585-19.839-9.457 1.517-20.114 2.371-31.39 2.371h-.556s.216.131.216.131c27.215 6.404 42.438 19.478 40.875 26.073zm29.881-47.182c6.488-3.447 10.224-7.493 10.224-11.82 0-9.147-16.695-17.035-40.785-20.667 2.367-2.958 3.73-6.426 3.73-10.136 0-10.829-11.609-19.608-25.929-19.608-11.453 0-21.171 5.616-24.604 13.405 4.159-2.148 9.187-3.405 14.604-3.405 14.32 0 25.929 8.779 25.929 19.608 0 3.71-1.363 7.178-3.73 10.136 24.09 3.631 40.785 11.519 40.785 20.667 0 .613-.077 1.219-.224 1.82z" fill="#42c345"/></g><g><path d="m10.708 320.857h178.643c9.893 0 17.961 8.068 17.961 17.961v23.311h-67.355l13.949 18.872-66.463-18.872h-76.735v-41.273z" fill="#ba7b62"/><path d="m10.708 320.857h178.643c9.893 0 17.961 8.068 17.961 17.961v23.311h-10v-13.311c0-9.893-8.068-17.961-17.961-17.961h-168.643zm136.641 51.273 6.558 8.872-22.011-6.25-1.938-2.622z" fill="#a76b52"/><path d="m10.734 291.932 194.659-2.683-17.264 16.619.127 15.953-177.522 1.101z" fill="#915c44"/><path d="m10.734 291.932 194.659-2.683-10.684 10.285-173.975 2.398v20.928l-10 .062z" fill="#7c4c37"/><path d="m10.708 341.494s-.082 28.466-.247 85.399c24.698 7.592 46.799 7.209 69.276 4.609 19.431-2.247 39.142-6.151 61.055-7.989 18.393-1.543 38.338-1.632 60.97 1.934 14.425 2.273 29.941 6.03 46.843 11.843-24.771-20.513-37.937-45.89-41.293-75.159h-67.355l13.949 18.872-66.463-18.872h-76.735v-20.636z" fill="#915c44"/><path d="m75.008 432.014c1.575-.159 3.152-.33 4.73-.512 3.753-.434 7.516-.93 11.304-1.461l-8.141-28.908c-.651-2.667-2.661-4.928-5.482-5.769l-29.515-8.788c-4.228-1.26-8.678 1.147-9.937 5.375-1.26 4.228 1.147 8.678 5.375 9.938l25.304 7.534zm60.262-7.992c1.826-.183 3.667-.354 5.524-.51 3.515-.295 7.087-.536 10.723-.71l-6.387-22.677c-.651-2.667-2.661-4.928-5.482-5.769l-19.276-5.739c-4.228-1.26-8.678 1.147-9.938 5.375s1.147 8.678 5.375 9.937l15.066 4.485 4.395 15.607zm59.221.39c2.394.304 4.817.647 7.272 1.034 3.244.511 6.543 1.098 9.901 1.766-.03-.579-.124-1.165-.287-1.747l-6.73-23.897-.015.004c-.634-2.256-2.252-4.212-4.579-5.192l-23.105-9.797c-4.056-1.708-8.729.194-10.437 4.25-1.709 4.056.194 8.729 4.25 10.437l19.547 8.289 4.183 14.852z" fill="#7c4c37"/><path d="m10.708 331.494s-.082 28.466-.247 85.399c24.698 7.592 46.799 7.209 69.276 4.609 19.431-2.247 39.142-6.151 61.055-7.989 18.393-1.543 31.751-2.578 54.383.988 14.425 2.273 31.15 10.203 48.052 16.015-24.771-20.514-32.56-49.116-35.916-78.385h-67.355l13.949 18.872-66.463-18.872h-76.734v-20.636z" fill="#a76b52"/><path d="m72.266 422.277c2.489-.226 4.978-.487 7.472-.776 2.856-.33 5.719-.696 8.593-1.087l-5.43-19.282c-.651-2.667-2.661-4.928-5.482-5.769l-29.515-8.788c-4.228-1.26-8.678 1.147-9.937 5.375-1.26 4.228 1.147 8.678 5.375 9.938l25.304 7.534zm60.268-7.97c2.72-.293 5.472-.56 8.26-.794 2.617-.22 5.265-.409 7.948-.564l-3.611-12.823c-.651-2.667-2.661-4.928-5.482-5.769l-19.276-5.739c-4.228-1.26-8.678 1.147-9.938 5.375s1.147 8.678 5.375 9.937l15.066 4.485 1.659 5.892zm59.042-.247c3.336.382 6.73.841 10.187 1.386 2.35.37 4.73.78 7.139 1.232l-4.255-15.109-.015.004c-.634-2.256-2.252-4.212-4.579-5.192l-23.105-9.797c-4.056-1.708-8.729.194-10.437 4.25-1.709 4.056.194 8.729 4.25 10.437l19.547 8.289 1.267 4.5z" fill="#915c44"/></g><g><path d="m332.939 268.173c-24.317-5.132-33.082 10.014-30.838 26.905 8.96 67.468 145.595 105.219 202.361 104.531-55.168 8.028-33.709 44.176-7.792 50.032-105.019 2.994-222.447-49.474-232.146-140.604-3.897-36.613 38.876-78.293 68.415-40.865z" fill="#cbf0ff"/><path d="m332.939 268.173c-8.135-1.717-14.528-1.162-19.352.967-12.644-8.889-26.43-6.496-37.527 1.803 14.1-18.423 38.147-26.503 56.879-2.77zm-29.055 10.836c-2.023 4.646-2.556 10.255-1.784 16.07 8.96 67.468 145.595 105.219 202.361 104.531-12.678 1.845-21.3 5.177-26.761 9.284-63.135-5.496-177.431-42.301-185.6-103.815-1.508-11.356 1.96-21.924 11.784-26.07zm167.385 137.571c-5.877 13.233 8.852 29.323 25.401 33.062-9.57.273-19.244.08-28.93-.556-9.671-9.772-12.26-23.652 3.529-32.506z" fill="#b1e8fe"/><path d="m242.841 377.505c-2.404-9.267-6.409-14.863-9.613-22.294-10.337-23.825 25.738-25.281 17.669-1.475-2.686 7.923-6.361 14.638-8.056 23.769zm113.054-79.09c7.127 6.392 13.558 8.84 20.337 13.261 21.786 14.136-7.467 35.297-13.907 10.999-2.143-8.086-2.794-15.714-6.43-24.26zm-8.21-58.143c9.524-.976 15.66-4.09 23.49-6.135 25.113-6.618 21.103 29.262-1.211 17.689-7.426-3.852-13.509-8.5-22.279-11.555zm-81.335-16.727c8.313-4.748 12.664-10.079 18.996-15.119 20.284-16.218 31.142 18.215 6.053 16.665-8.35-.516-15.794-2.303-25.05-1.547zm-32.822 73.817c-1.4-9.47-4.784-15.462-7.176-23.193-7.732-24.793 28.292-22.387 17.726.421-3.517 7.591-7.889 13.875-10.55 22.772z" fill="#cbf0ff"/><path d="m242.841 377.505c-2.404-9.267-6.409-14.863-9.613-22.294-6.073-13.999 3.875-20.271 11.478-18.238-.162.08-.322.164-.479.252l-.094.054c-.153.088-.303.179-.451.274l-.079.052c-.149.098-.295.2-.439.306l-.082.061c-.147.111-.292.226-.433.345l-.068.059c-.132.114-.262.232-.389.354l-.075.072c-.133.131-.264.266-.391.406l-.062.07c-.12.135-.236.274-.35.417l-.05.063c-.12.154-.235.313-.346.476l-.05.074c-.109.163-.214.329-.314.501l-.021.036c-.103.179-.201.363-.294.551l-.037.075c-.092.19-.179.384-.261.584l-.016.041c-.079.197-.152.398-.221.604l-.022.065c-.069.213-.132.429-.189.651l-.014.057c-.055.218-.103.441-.145.668l-.011.054c-.042.234-.078.473-.107.717l-.008.071c-.027.241-.048.487-.062.737l-.002.038c-.013.257-.019.519-.017.786v.078c.004.27.014.545.032.825v.011c.02.28.048.566.083.856l.009.073c.037.29.081.584.134.884l.009.049c.054.297.116.599.187.906l.012.053c.073.311.155.627.245.947l.023.079c.09.314.189.632.297.956l.017.053c.111.33.232.664.362 1.003l.036.092c.134.346.277.696.431 1.052l.079.183.071.164.008.018.08.182.064.145.016.036c.096.216.193.431.29.644v.002s.033.072.033.072l.081.178.041.088.041.089.082.177.033.07.05.106.083.175.025.052.141.297.017.034.067.139.083.174.008.017.075.156.084.172s.084.173.084.173l.075.154.008.018.152.308.017.035.084.171.059.119.026.052.084.17.051.102.034.069.127.254.043.085.085.169.034.067.051.102.085.169.025.05.06.119.085.169.017.033.069.136.086.168.008.016.077.152.086.168s.086.169.086.169l.077.151.009.018.086.168.068.134.017.035.257.505.051.1.035.068.085.169.042.083.043.085.085.169.085.169.085.169.025.05.06.12.17.34.085.17.085.17.084.169s.084.172.084.172c.169.342.337.686.504 1.033-1.42 3.716-2.714 7.587-3.538 12.029zm113.054-79.09c3.663 3.286 7.143 5.53 10.581 7.535l.067.253.002.008.063.245c.109.421.214.84.315 1.258l.002.007.059.244.06.251.059.25.002.007.057.244.058.25.057.25.002.006.055.243.167.748.029.13.026.119.054.249v.005s.054.243.054.243l.028.13.025.119.053.249.002.005.104.492.052.248v.005s.052.243.052.243l.027.129.025.119.052.248v.005s.052.244.052.244l.027.128.025.12.052.248v.004s.052.244.052.244l.027.128.025.12.052.248v.004s.052.244.052.244l.027.127.025.121.052.248v.003s.052.245.052.245l.027.127.025.121.052.248v.003s.053.245.053.245l.027.127.026.121.053.249v.003s.054.246.054.246l.027.127.026.122.054.249v.002s.055.247.055.247l.028.127.063.285.019.087v.002s.056.247.056.247l.029.127.085.373v.002s.058.248.058.248l.029.126.029.124.059.25s.09.377.09.377l.03.124.061.251s.062.251.062.251l.031.126.031.125.064.252s.065.252.065.252l.033.127.033.126.067.253c.1.377.206.743.316 1.099l.004.012c.109.348.222.686.341 1.014l.014.038c.117.322.239.634.365.937l.018.042c.124.295.252.582.384.859l.031.066c.129.269.262.528.399.78l.045.083c.134.244.272.481.412.709l.056.09c.138.22.278.433.422.638l.069.097c.136.191.274.375.414.553l.107.133c.132.163.267.321.403.473l.137.15c.129.139.259.274.39.403.058.058.117.114.176.169.121.114.244.225.367.332.071.062.143.122.215.181.107.088.214.173.323.254.095.072.19.141.286.209.089.063.179.124.269.184.117.077.234.151.353.222.072.043.144.085.216.126.139.079.28.154.421.225l.18.088c.152.073.305.141.458.204l.043.017c.201.082.404.157.607.224-5.42 2.835-13.085 1.2-16.018-9.866-2.143-8.086-2.794-15.714-6.43-24.26zm-8.21-58.143c9.524-.976 15.66-4.09 23.49-6.135 2.947-.776 5.487-.962 7.649-.714-1.09.287-2.147.594-3.186.913l-.007.002-.245.076-.102.032c-.576.179-1.147.361-1.715.546l-.251.082-.089.029-.253.083-.087.029c-.654.214-1.305.43-1.958.646l-.076.025-.265.087-.683.224-.071.023-.271.088-.069.022-.274.089c-.458.148-.917.295-1.38.439zm30.056 10.808-30.056-10.807c8.77 3.055 14.853 7.703 22.279 11.555 5.535 2.871 9.943 2.819 13.06 1.223-.229-.05-.46-.105-.694-.166l-.078-.021-.251-.069c-.174-.049-.348-.1-.524-.155-.184-.057-.369-.118-.556-.182l-.298-.105c-.25-.09-.502-.187-.757-.29l-.164-.067c-.3-.124-.605-.257-.912-.4l-.035-.016c-.333-.155-.671-.321-1.013-.499zm-111.391-27.535c8.313-4.748 12.664-10.079 18.996-15.119 5.107-4.084 9.616-4.954 13.105-3.998l-.004.002c-.218.091-.438.188-.659.291l-.191.09c-.233.112-.468.231-.704.356l-.155.083c-.256.139-.514.286-.774.441l-.103.062c-.275.167-.553.343-.833.529l-.066.044c-.293.196-.588.403-.886.621l-.009.007h-.002c-.312.23-.626.47-.942.723-6.332 5.04-10.683 10.371-18.996 15.119l.424-.033h.008s.2-.015.2-.015l.23-.016.403-.025h.024s.393-.023.393-.023l.032-.002.383-.018.04-.002.372-.014.048-.002.363-.012h.01s.322-.008.322-.008l.076-.002h.063s.161-.004.161-.004l.235-.004h.018s.334-.004.334-.004h.078s.324-.002.324-.002h.312s.123.001.123.001l.292.003h.09s.224.004.224.004l.25.004h.034s.358.009.358.009h.02s.279.008.279.008h.038s.241.009.241.009l.112.004.128.005.102.004.248.01.047.002.253.012.05.003.202.01.247.013.1.006.294.017.09.005.287.018.106.007.304.021.031.002.212.015.177.013.091.007.26.02.036.003.196.016.19.016.047.004.323.028.027.002.357.032h.016s.172.017.172.017l.211.02.165.016.218.021.157.015.225.022.15.015.231.024.142.014.238.025.135.014.245.026.127.014.252.028.12.013.259.029.113.012.266.03.378.043.098.011.279.032.091.011.287.033.084.01.293.034.077.009.3.035.069.008.308.036.062.007.315.037.055.006.322.038.048.005.329.038.041.005.337.039.034.004.344.039.027.003.352.04.019.002.359.04h.012s.367.041.367.041h.005s.372.04.372.04h.002s.371.039.371.039h.009s.364.038.364.038l.375.037.024.003.351.034.031.003.345.032.038.004.338.03c.617.054 1.239.104 1.865.147l.033.002c-1.982.65-4.398.958-7.302.778-8.35-.516-15.794-2.303-25.05-1.547zm-32.822 73.817c-1.4-9.47-4.784-15.462-7.176-23.193-4.316-13.839 5.001-19.2 12.239-17.273s-.092.048-.092.048c-.154.079-.306.163-.456.25l-.083.049c-.152.091-.303.186-.45.286l-.084.057c-.149.103-.296.21-.44.322l-.082.065c-.146.116-.289.235-.429.36l-.06.054c-.141.128-.279.26-.413.398l-.049.051c-.132.138-.261.28-.386.427l-.045.052c-.128.153-.253.311-.373.474l-.044.06c-.119.164-.234.334-.345.508l-.038.06c-.111.177-.217.36-.318.547l-.029.054c-.099.186-.193.377-.282.573l-.022.048c-.091.204-.176.413-.257.627l-.021.055c-.079.214-.152.433-.219.657l-.02.068c-.067.226-.127.457-.181.694l-.013.059c-.055.244-.104.493-.145.748v.008s-.003.011-.003.011c-.042.26-.076.526-.103.798l-.003.034c-.026.269-.045.544-.057.824l-.002.059c-.011.279-.014.563-.01.853v.056c.006.297.019.599.041.907l.002.022c.022.314.053.634.093.961l.002.015c.039.323.088.652.145.987l.009.056c.057.329.123.664.197 1.005l.016.072c.076.341.16.689.254 1.042l.016.057c.097.363.203.732.321 1.107l.062.199.051.162.012.036.01.032.09.284.002.006.023.072c.063.196.127.392.192.587l.017.052.048.143.065.194.005.016.06.177.059.173.007.019.066.192.047.137.019.055.067.191.035.101.032.089.067.19.024.066.112.313.011.031.057.158.067.184v.004s.07.188.07.188l.055.149.014.039.069.187.042.114.027.073.069.187.03.08.039.107.069.186.017.045.052.141.07.185.004.011.065.174.062.162.008.023.07.185.049.128.021.057.07.185.036.094.035.09.07.185.023.06.047.124.07.184.01.026.06.158.067.177.003.008.07.185.054.143.016.042.07.185.041.109.099.261.028.075.042.109.07.185.016.042.054.144.07.186.003.007.067.178.06.159.01.027.069.186.047.125.023.061.069.187.034.091.035.096.069.187.021.057.048.13.068.188.008.023.124.343.004.012.068.189.051.143.084.237.038.109.029.082c-1.866 3.634-3.626 7.431-4.957 11.882z" fill="#b1e8fe"/></g></g><path d="m288.857 220.071c2.787-2.215 5.336-3.117 6.517-2.286.85.609 1.37 2.12.992 3.098-.378 1.181-2.739 1.818-5.95 1.62-1.369-.081-2.692-.198-4.014-.34.803-.708 1.606-1.398 2.456-2.092zm-23.33 16.85c5.384-.439 10.201.123 15.349.722 2.739.321 5.573.652 8.595.831.661.047 1.37.066 2.031.066 9.823 0 17.19-4.519 19.976-12.316 2.692-7.702-.142-16.732-6.848-21.483-7.32-5.237-16.954-4.179-25.738 2.824-2.314 1.837-4.298 3.669-6.281 5.44-3.542 3.216-6.895 6.257-11.712 8.997-3.211 1.861-4.77 5.733-3.636 9.313 1.086 3.58 4.534 5.908 8.264 5.606zm106.211 10.352c3.448-.911 6.139-.699 6.895.529.519.921.378 2.494-.331 3.254-.85.907-3.259.548-6.092-.93-1.228-.623-2.409-1.28-3.589-1.951 1.039-.321 2.078-.618 3.117-.902zm-11.996-13.049c-4.534 1.507-8.831 2.928-14.357 3.49-3.731.378-6.659 3.311-7.131 7.027-.425 3.721 1.794 7.249 5.336 8.482 5.1 1.78 9.304 4.25 13.696 6.871 2.409 1.398 4.864 2.848 7.509 4.241 4.203 2.149 8.312 3.216 12.09 3.216 5.053 0 9.587-1.856 13.034-5.516 5.62-5.932 6.659-15.353 2.456-22.404-4.628-7.759-13.837-10.687-24.699-7.83-2.834.742-5.431 1.601-7.934 2.423zm10.673 89.559c2.975 1.941 4.628 4.08 4.203 5.45-.283 1.011-1.558 1.913-2.597 1.932-1.275-.019-2.598-2.04-3.4-5.143-.378-1.308-.661-2.616-.992-3.948.945.548 1.889 1.11 2.786 1.71zm-17.284 6.342c2.786 10.498 9.729 16.869 18.56 17.039h.331c8.075 0 15.537-5.52 17.898-13.242 2.645-8.637-1.369-17.45-10.767-23.547-2.503-1.61-4.864-2.952-7.131-4.25-4.203-2.361-8.123-4.581-12.231-8.265-2.834-2.508-6.942-2.725-10.012-.548-3.07 2.182-4.203 6.191-2.692 9.639 2.125 4.963 3.07 9.724 4.156 14.763.52 2.711 1.133 5.511 1.889 8.411zm-114.522 20.43c.425-.373 1.086-.562 1.747-.562.567 0 1.086.142 1.511.401.992.718 1.039 3.14 0 6.168-.472 1.289-.897 2.55-1.417 3.82-.472-.968-.897-1.95-1.322-2.961-1.464-3.258-1.653-5.96-.519-6.867zm-10.579 20.708c2.172 4.279 4.203 8.321 5.62 13.648.897 3.542 4.109 5.988 7.745 5.988h.284c3.731-.128 6.895-2.848 7.556-6.536.992-5.308 2.786-9.823 4.723-14.602 1.039-2.56 2.078-5.209 3.07-8.057 3.447-10.281 1.181-19.433-6.092-24.472-6.706-4.638-16.151-4.241-22.479.963-6.989 5.728-8.501 15.296-4.014 25.577 1.134 2.72 2.409 5.138 3.589 7.49zm17.285 33.909c-1.653-4.099.378-8.746 4.486-10.38 4.108-1.629 8.737.382 10.389 4.482 8.359 21.067 41.323 41.332 84.062 51.632 52.656 12.699 94.546 19.037 152.775 13.908 4.439-.397 8.312 2.862 8.69 7.268.378 4.401-2.881 8.283-7.273 8.671-13.979 1.233-27.108 1.809-39.717 1.809-41.7 0-77.592-6.305-118.253-16.104-48.359-11.656-84.817-35.136-95.16-61.285zm215.16 22.111c-.236 6.649 2.361 13.412 6.942 19.282-43.07-2.72-85.667-14.494-120.142-33.53-45.006-24.841-72.066-60.161-76.269-99.443-1.889-17.629 10.012-38.621 25.455-44.921 2.928-1.176 5.762-1.757 8.548-1.757 1.275 0 2.55.118 3.778.359-3.07 1.36-5.431 3.07-7.273 4.76-7.178 6.682-10.39 17.44-8.784 29.502 5.478 41.289 50.909 68.548 88.076 84.146 30.13 12.661 61.96 20.633 87.84 24.51-6.328 5.912-7.934 12.42-8.17 17.091zm-151.925-127.859c-.897-6.843.52-12.553 3.873-15.651 4.392-4.071 11.853-3.537 17.379-2.371 3.306.699 6.706-.751 8.453-3.608 1.794-2.862 1.605-6.531-.52-9.181-12.893-16.368-30.177-21.752-47.32-14.748-22.101 9.02-37.969 36.567-35.325 61.417 4.77 44.628 34.758 84.312 84.44 111.759 41.889 23.131 95.018 36.123 147.061 36.123 2.975 0 5.903-.042 8.831-.123 4.061-.118 7.367-3.207 7.745-7.23.378-4.01-2.267-7.679-6.187-8.567-10.815-2.451-20.779-11.84-20.496-19.344.283-6.89 10.626-12.486 27.674-14.98 4.156-.6 7.131-4.34 6.801-8.538-.331-4.17-3.778-7.367-7.981-7.367h-.094c-25.171.26-72.161-7.731-115.892-26.092-27.249-11.443-73.719-35.944-78.442-71.5zm-163.306 121.039-4.486-16.071c-.755-2.64-2.786-4.718-5.431-5.497l-16.435-4.893c-4.203-1.261-8.69 1.147-9.917 5.393-1.275 4.226 1.133 8.685 5.384 9.946l12.184 3.631 2.503 8.911c-9.776 1.091-19.126 2.48-28.194 3.83-5.714.85-11.287 1.677-16.765 2.399l-6.47-22.971c-.708-2.64-2.786-4.718-5.384-5.502l-25.785-7.679c-4.25-1.261-8.689 1.148-9.965 5.393-1.275 4.227 1.134 8.69 5.384 9.95l21.582 6.418 4.534 16.18c-16.718 1.388-33.153 1.001-50.956-3.65l.141-50.72h67.722l65.36 18.56c.708.213 1.464.312 2.22.312 2.55 0 5.006-1.251 6.564-3.452 1.936-2.81 1.889-6.55-.142-9.308l-4.533-6.111h44.581c3.211 19.051 10.531 36.151 21.866 51.202-4.817-1.143-9.54-2.102-14.168-2.923l-4.911-17.487c-.661-2.342-2.361-4.25-4.581-5.19l-21.629-9.171c-4.061-1.728-8.784.17-10.484 4.241-1.747 4.071.189 8.77 4.251 10.489l18.087 7.67 1.936 6.97c-15.868-1.71-30.414-1.729-44.062-.869zm38.536-117.53-2.644 2.569c-1.606 1.53-2.503 3.631-2.456 5.832l.047 6.928h-161.465v-13.039l166.517-2.291zm-37.922-118.258-30.083-36.671c1.37-.723 2.739-1.521 4.014-2.371l33.53 39.698c1.511 1.813 3.778 2.843 6.092 2.843.378 0 .708-.023 1.086-.071l3.495-.472c2.267-.298 4.298-1.549 5.573-3.448l31.594-46.72c1.464 1.2 3.022 2.3 4.628 3.311l-34.853 55.698c-.897 1.431-1.322 3.103-1.228 4.793l5.809 85.776-35.75.491 7.887-97.138c.189-2.073-.472-4.123-1.795-5.719zm-74.05-56.161c5.856 5.799 13.648 8.997 21.913 8.997 17.19 0 31.169-13.979 31.169-31.169 0-2.21-.236-4.43-.708-6.588-.472-2.163 0-4.42 1.228-6.229 1.275-1.823 3.211-3.032 5.431-3.362 8.973-1.341 15.773-9.218 15.773-18.328 0-8.581-5.809-15.99-14.168-18.012-2.598-.638-4.77-2.56-5.667-5.119-.897-2.56-.425-5.388 1.228-7.542 1.842-2.366 2.834-5.219 2.834-8.217 0-7.443-6.092-13.478-13.506-13.478s-13.459 6.035-13.459 13.478c0 5.568 3.353 10.498 8.501 12.539 2.55 1.001 4.392 3.192 4.911 5.851.567 2.649-.283 5.398-2.219 7.292-2.928 2.867-4.77 6.517-5.337 10.526-.331 2.192-1.511 4.151-3.353 5.422-1.795 1.261-4.061 1.719-6.234 1.27-5.006-1.049-10.295-.85-15.207.59-2.267.661-4.723.288-6.659-1.02-1.984-1.313-3.259-3.419-3.542-5.771-.425-3.92-3.4-7.75-8.123-10.498-3.211-1.894-4.722-5.78-3.589-9.351.425-1.332.661-2.72.661-4.132 0-7.429-6.045-13.478-13.506-13.478-7.415 0-13.459 6.049-13.459 13.478 0 1.573.283 3.112.803 4.571 1.228 3.509-.095 7.429-3.211 9.45-4.628 2.971-7.32 6.999-7.32 11.041 0 8.43 10.956 15.561 23.896 15.561 1.559 0 3.117-.113 4.628-.312 2.739-.35 5.478.718 7.226 2.838 1.747 2.13 2.267 5.02 1.417 7.631-.378 1.2-.708 2.418-.992 3.632-.519 2.56-2.219 4.69-4.628 5.738-2.361 1.039-5.1.86-7.32-.482-3.117-1.87-6.659-2.857-10.295-2.857-10.957 0-19.882 8.921-19.882 19.892s8.926 19.896 19.882 19.896c7.698 0 14.734-4.496 17.993-11.457 1.133-2.352 3.306-4.033 5.856-4.482 2.597-.458 5.195.359 7.036 2.191zm143.896-75.051c-9.587 0-17.946 5.431-17.946 11.608 0 3.443 2.645 6.843 7.037 9.11 2.125 1.1 3.636 3.112 4.156 5.464.472 2.357-.094 4.808-1.606 6.678-4.014 4.968-6.139 10.98-6.139 17.388 0 15.264 12.373 27.67 27.627 27.67 7.226 0 14.073-2.758 19.221-7.769 2.267-2.191 5.62-2.838 8.548-1.667 2.503.996 4.297 3.159 4.817 5.719 1.322.448 3.636.789 4.722.949 2.975.43 9.209 1.317 10.201 7.641.661 4.227-1.558 7.627-6.611 10.13-6.565 3.249-10.626 9.648-12.893 14.536 2.881-.486 6.706-2.498 12.373-5.809 6.989-4.151 14.262-8.439 21.724-6.361 2.786.76 6.659 2.763 9.445 7.934 1.417 2.65 3.306 3.849 6.281 4.01 6.611.349 15.726-4.723 20.307-9.752-2.834-3.717-13.412-11.858-34.192-16.746-.803-.194-1.606-.515-2.314-.949l-.236-.132c-3.07-1.87-4.486-5.549-3.542-9.001.992-3.452 4.156-5.837 7.698-5.837h.567c40.614 0 61.393-10.645 62.621-14.791-.708-2.234-9.823-9.119-33.955-12.76-2.834-.43-5.195-2.333-6.234-5.001-1.086-2.659-.614-5.681 1.181-7.91 1.322-1.639 1.983-3.372 1.983-5.138 0-6.182-8.359-11.613-17.946-11.613s-17.899 5.431-17.899 11.613c0 1.436.425 2.871 1.322 4.236 1.511 2.38 1.653 5.384.425 7.901-1.275 2.531-3.778 4.198-6.565 4.411-7.036.51-13.695 1.369-19.835 2.569-3.164.619-6.376-.727-8.17-3.41-3.306-4.959-8.217-8.779-13.79-10.758-4.156-1.474-6.328-6.012-4.864-10.172.236-.779.378-1.577.378-2.38 0-6.177-8.359-11.608-17.899-11.608zm-19.74 284.969c-17.001-.35-60.968-.482-178.701.401v-4.572h170.626c3.353 0 6.281 1.653 8.075 4.17zm-63.896 33.852v.019l-43.92-12.467c-.708-.203-1.417-.303-2.172-.303h-68.714v-4.699c118.394-.892 164.817-.76 180.59-.373v5.072h-59.363c-3.022 0-5.761 1.7-7.131 4.402-1.37 2.687-1.086 5.917.708 8.349zm369.871 120.25c-95.396 0-168.218-11.802-216.435-35.093-12.562-6.049-23.424-12.817-32.633-20.326-.378-.401-.803-.76-1.275-1.072-22.054-18.389-34.475-41.209-37.733-69.03v-22.791c0-11.948-8.123-22.031-19.126-25.039l-.047-4.538 14.782-14.229c2.361-2.281 3.117-5.771 1.842-8.812-1.228-2.999-4.156-4.949-7.367-4.949h-.142l-12.279.17-5.667-84.052 35.136-56.109c2.55.463 5.195.723 7.84.723 7.65 0 14.971-1.95 21.44-5.615-8.406 9.743-11.287 21.233-11.428 21.894-.661 2.796.236 5.738 2.314 7.707 4.534 4.212 9.303 5.762 13.979 5.762 8.217 0 16.151-4.699 22.149-8.241 2.692-1.568 6.942-4.09 9.02-4.59v.009c4.061 7.514 11.003 11.901 19.504 12.364 13.696.727 29.186-8.973 35.703-18.395 2.361-3.395 2.739-7.617 1.086-11.877-1.983-5.1-6.942-10.21-13.979-14.782 24.982-4.161 44.959-13.332 44.959-28.147 0-11.991-13.459-21.511-37.403-26.72.236-1.341.378-2.701.378-4.08 0-15.221-15.254-27.613-33.955-27.613s-33.908 12.392-33.908 27.613c0 .52 0 1.039.047 1.558-2.314.293-4.581.609-6.8.982-3.495-4.024-7.651-7.391-12.326-9.913v-.231c0-15.216-15.207-27.608-33.908-27.608s-33.955 12.392-33.955 27.608c0 6.89 3.07 13.351 8.453 18.314-3.258 6.238-5.006 13.228-5.006 20.326 0 7.575 1.936 14.701 5.337 20.921l-30.035 44.411-29.044-34.409c5.903-7.891 9.445-17.681 9.445-28.293 0-.808-.047-1.62-.094-2.418 12.846-5.152 21.771-17.814 21.771-32.09 0-12.6-6.706-23.839-17.143-29.879.897-2.881 1.369-5.913 1.369-9.011 0-16.26-13.223-29.478-29.469-29.478s-29.469 13.218-29.469 29.478c0 8.699 3.731 16.69 10.012 22.168-.755 1.322-1.417 2.701-1.936 4.113-2.597-.123-5.195-.024-7.745.269-1.889-4.042-4.864-7.731-8.69-10.829.142-.992.189-1.993.189-3.004 0-16.246-13.223-29.478-29.516-29.478s-29.469 13.233-29.469 29.478c0 1.369.094 2.729.283 4.08-6.423 5.71-9.965 13.119-9.965 20.982 0 8.251 4.014 15.769 10.579 21.398-9.965 6.39-16.576 17.559-16.576 30.243 0 19.797 16.104 35.896 35.892 35.896 10.484 0 20.354-4.647 27.107-12.359 7.556 4.949 16.434 7.608 25.691 7.608 1.889 0 3.778-.128 5.62-.35l32.113 39.15-7.792 95.443-114.522 1.577c-4.345.061-7.887 3.622-7.887 8v49.539l-.236 85.403c-.047 3.518 2.267 6.63 5.62 7.669 26.163 8.029 49.445 7.589 72.68 4.888h.047c7.887-.921 15.821-2.102 23.849-3.296 11.948-1.78 24.085-3.584 36.789-4.661.142-.019.283-.019.472-.042 17.757-1.487 36.694-1.549 58.135 1.823.283.047.52.09.803.118 13.507 2.163 28.005 5.69 43.873 11.06 10.106 8.213 21.866 15.561 35.23 22.021 50.437 24.34 125.573 36.68 223.424 36.68 4.439 0 7.981-3.58 7.981-8s-3.542-8-7.981-8zm-269.186-222.229c.378-.26.944-.392 1.464-.392.661 0 1.369.203 1.794.581.944.817.708 3.23-.661 6.13-.567 1.242-1.181 2.437-1.795 3.65-.378-1.02-.708-2.04-1.039-3.093-1.039-3.386-.945-6.097.236-6.876zm-1.275 40.439c-3.731-.269-6.801-3.103-7.32-6.81-.803-5.45-2.408-9.691-4.109-14.172-.944-2.461-1.936-5.006-2.786-7.83-3.353-10.697-.85-20.057 6.706-25.006 6.848-4.491 16.293-3.882 22.479 1.45 6.706 5.785 7.981 15.126 3.447 24.977-1.275 2.73-2.644 5.252-3.92 7.693-2.408 4.548-4.675 8.836-6.234 14.007-1.039 3.409-4.156 5.71-7.65 5.71-.236 0-.425-.009-.614-.019z"/></g></svg>