<svg height="100pt" viewBox="0 0 100 100" width="100pt" xmlns="http://www.w3.org/2000/svg" xmlns:xlink="http://www.w3.org/1999/xlink" isolation="isolate"><clipPath id="_clipPath_SK9aoC8b4ErZapRpizLOh2a1wd0B1HTG"><path d="m0 0h100v100h-100z"/></clipPath><g clip-path="url(#_clipPath_SK9aoC8b4ErZapRpizLOh2a1wd0B1HTG)"><path d="m49.073 18.268h2.014c1.328 0 2.407 1.079 2.407 2.407v64.171c0 1.328-1.079 2.406-2.407 2.406h-2.014c-1.328 0-2.406-1.078-2.406-2.406v-64.171c0-1.328 1.078-2.407 2.406-2.407z" fill="#bd9449"/><path d="m46.034 14.052h7.872c.639 0 1.157.519 1.157 1.157v8.376c0 .638-.518 1.157-1.157 1.157h-7.872c-.639 0-1.157-.519-1.157-1.157v-8.376c0-.638.518-1.157 1.157-1.157z" fill="#659f77"/><path d="m75.408 45.378-7.158-8.253 7.262-8.267h-45.399l-7.988 8.767 7.265 7.753z" fill="#bd9449"/><path d="m24.75 66.375 6.986-8.591-6.736-7.909 43.456-.347 9.128 8.547-6.959 8.425z" fill="#bd9449"/><path d="m49.993 87.438-.093-20.735h15.714l8.276-8.276-8.555-8.555h-15.435v-4.184h22.967l-8.927-8.926 7.439-7.439h-21.294v-4.928h1.488v-10.694h1.953l1.395 1.395v8.09l-1.488 1.487v3.627l22.942.95-8.436 7.697 7.903 8.555h-22.409v4.277h15.807l8.462 8.276-6.952 8.695-17.782-.419v18.969q.279 2.324-2.975 2.138z" fill-opacity=".2"/><path d="m46.084 14.663v9.578 4.463l-11.995.372-8.276 8.368 7.811 7.718 11.902.279v3.72l-17.109.65 6.788 7.811-7.16 8.555-3.905-.093 7.159-7.997-6.973-8.369 20.549.372.186-4.091-15.435-.093-8.462-8.276 9.392-9.019 14.412.558.279-3.906-1.116-1.859.372-9.299z" fill="#fff" fill-opacity=".2"/><path d="m45.93 84.505v-17.848c0-.576.468-1.044 1.044-1.044s1.044.468 1.044 1.044v17.925c0 .055-.005.11-.014.165-.064.404-.058.735.12.977.127.173.332.284.589.37.401.136.904.193 1.507.193 1.056 0 1.812-.136 2.196-.627.214-.272.265-.645.23-1.1-.002-.027-.003-.053-.003-.08v-17.772c0-.576.467-1.044 1.043-1.044.577 0 1.044.468 1.044 1.044v17.737c.072 1.045-.176 1.873-.671 2.504-.69.879-1.945 1.426-3.839 1.426-1.92 0-3.149-.557-3.78-1.416-.455-.62-.656-1.433-.51-2.454z" fill-rule="evenodd"/><path d="m31.062 57.98-7.21-7.41c-.293-.3-.376-.747-.214-1.133s.54-.637.96-.639l45.391-.109c.279-.001.546.111.743.308l8.527 8.583c.406.408.405 1.067-.002 1.474l-7.922 7.922c-.197.197-.465.307-.743.306l-45.997-.22c-.42-.002-.798-.256-.958-.643-.162-.389-.075-.835.22-1.134zm-3.978 7.006 43.083.206 6.878-6.878-7.487-7.536-42.491.102 6.205 6.377c.395.407.393 1.057-.005 1.461z" fill-rule="evenodd"/><path d="m54.072 45.737v2.806"/><path d="m53.028 45.737v2.806c0 .576.467 1.044 1.044 1.044.576 0 1.043-.468 1.043-1.044v-2.806c0-.576-.467-1.044-1.043-1.044-.577 0-1.044.468-1.044 1.044z" fill-rule="evenodd"/><path d="m46.699 45.682v2.805"/><g fill-rule="evenodd"><path d="m45.655 45.682v2.805c0 .577.468 1.044 1.044 1.044s1.044-.467 1.044-1.044v-2.805c0-.576-.468-1.044-1.044-1.044s-1.044.468-1.044 1.044z"/><path d="m69.7 37.313 7.642 7.464c.304.296.397.747.237 1.14s-.542.65-.967.65h-46.232c-.277 0-.543-.11-.738-.306l-7.958-7.958c-.197-.196-.306-.462-.306-.739 0-.278.11-.544.308-.739l8.69-8.641c.196-.195.461-.304.736-.304h45.5c.422 0 .803.254.965.644s.072.839-.227 1.138zm4.393-7.346h-42.55l-7.643 7.6 6.912 6.912h43.238l-6.564-6.412c-.199-.194-.312-.461-.314-.74s.109-.547.306-.744z"/><path d="m46.248 12.778c-1.213 0-2.2.986-2.2 2.201v8.364c0 1.214.986 2.2 2.2 2.2h7.863c1.214 0 2.201-.986 2.201-2.2v-8.364c0-1.215-.988-2.201-2.201-2.201zm0 2.088h7.863c.063 0 .113.05.113.113v8.364c0 .062-.051.112-.113.112h-7.863c-.061 0-.112-.05-.112-.112v-8.364c0-.063.05-.113.112-.113z"/></g><path d="m53.962 27.939v-3.329"/><path d="m55.006 27.939v-3.329c0-.577-.468-1.044-1.044-1.044s-1.044.467-1.044 1.044v3.329c0 .576.468 1.044 1.044 1.044s1.044-.468 1.044-1.044z" fill-rule="evenodd"/><path d="m46.479 27.939v-3.329"/><path d="m47.523 27.939v-3.329c0-.577-.468-1.044-1.044-1.044s-1.044.467-1.044 1.044v3.329c0 .576.468 1.044 1.044 1.044s1.044-.468 1.044-1.044z" fill-rule="evenodd"/></g></svg>